<mxfile host="app.diagrams.net" modified="2024-03-31T15:53:31.594Z" agent="Mozilla/5.0 (Windows NT 10.0; Win64; x64) AppleWebKit/537.36 (KHTML, like Gecko) Chrome/123.0.0.0 Safari/537.36" etag="JS1OoV-8lvyjG9-J4SVi" version="23.1.1" type="github">
  <diagram id="C5RBs43oDa-KdzZeNtuy" name="Page-1">
    <mxGraphModel dx="1590" dy="703" grid="1" gridSize="10" guides="1" tooltips="1" connect="1" arrows="1" fold="1" page="1" pageScale="1" pageWidth="827" pageHeight="1169" math="0" shadow="0">
      <root>
        <mxCell id="WIyWlLk6GJQsqaUBKTNV-0" />
        <mxCell id="WIyWlLk6GJQsqaUBKTNV-1" parent="WIyWlLk6GJQsqaUBKTNV-0" />
        <mxCell id="VOs9YZUs-2yAqUJfuIDz-68" style="edgeStyle=orthogonalEdgeStyle;rounded=0;orthogonalLoop=1;jettySize=auto;html=1;exitX=0.5;exitY=1;exitDx=0;exitDy=0;entryX=0.5;entryY=0;entryDx=0;entryDy=0;" edge="1" parent="WIyWlLk6GJQsqaUBKTNV-1" source="VOs9YZUs-2yAqUJfuIDz-1" target="VOs9YZUs-2yAqUJfuIDz-54">
          <mxGeometry relative="1" as="geometry" />
        </mxCell>
        <mxCell id="VOs9YZUs-2yAqUJfuIDz-1" value="t = 0&lt;br&gt;q.append(t)" style="shape=hexagon;perimeter=hexagonPerimeter2;whiteSpace=wrap;html=1;fixedSize=1;" vertex="1" parent="WIyWlLk6GJQsqaUBKTNV-1">
          <mxGeometry x="235" y="120" width="120" height="60" as="geometry" />
        </mxCell>
        <mxCell id="VOs9YZUs-2yAqUJfuIDz-11" style="edgeStyle=orthogonalEdgeStyle;rounded=0;orthogonalLoop=1;jettySize=auto;html=1;exitX=1;exitY=0.5;exitDx=0;exitDy=0;" edge="1" parent="WIyWlLk6GJQsqaUBKTNV-1" source="VOs9YZUs-2yAqUJfuIDz-3">
          <mxGeometry relative="1" as="geometry">
            <mxPoint x="390.2857142857142" y="700" as="targetPoint" />
          </mxGeometry>
        </mxCell>
        <mxCell id="VOs9YZUs-2yAqUJfuIDz-13" style="edgeStyle=orthogonalEdgeStyle;rounded=0;orthogonalLoop=1;jettySize=auto;html=1;exitX=1;exitY=0.5;exitDx=0;exitDy=0;entryX=0;entryY=0.5;entryDx=0;entryDy=0;" edge="1" parent="WIyWlLk6GJQsqaUBKTNV-1" source="VOs9YZUs-2yAqUJfuIDz-3" target="VOs9YZUs-2yAqUJfuIDz-12">
          <mxGeometry relative="1" as="geometry" />
        </mxCell>
        <mxCell id="VOs9YZUs-2yAqUJfuIDz-14" value="True" style="edgeLabel;html=1;align=center;verticalAlign=middle;resizable=0;points=[];" vertex="1" connectable="0" parent="VOs9YZUs-2yAqUJfuIDz-13">
          <mxGeometry x="-0.2187" y="2" relative="1" as="geometry">
            <mxPoint as="offset" />
          </mxGeometry>
        </mxCell>
        <mxCell id="VOs9YZUs-2yAqUJfuIDz-22" style="edgeStyle=orthogonalEdgeStyle;rounded=0;orthogonalLoop=1;jettySize=auto;html=1;exitX=0.5;exitY=1;exitDx=0;exitDy=0;entryX=0.5;entryY=0;entryDx=0;entryDy=0;" edge="1" parent="WIyWlLk6GJQsqaUBKTNV-1" source="VOs9YZUs-2yAqUJfuIDz-3" target="VOs9YZUs-2yAqUJfuIDz-20">
          <mxGeometry relative="1" as="geometry" />
        </mxCell>
        <mxCell id="VOs9YZUs-2yAqUJfuIDz-47" value="False" style="edgeLabel;html=1;align=center;verticalAlign=middle;resizable=0;points=[];" vertex="1" connectable="0" parent="VOs9YZUs-2yAqUJfuIDz-22">
          <mxGeometry x="0.0286" y="-1" relative="1" as="geometry">
            <mxPoint as="offset" />
          </mxGeometry>
        </mxCell>
        <mxCell id="VOs9YZUs-2yAqUJfuIDz-3" value="a와 b가 겹치는가?&lt;br&gt;(s2 &amp;lt; f1)" style="rhombus;whiteSpace=wrap;html=1;" vertex="1" parent="WIyWlLk6GJQsqaUBKTNV-1">
          <mxGeometry x="200" y="650" width="190" height="100" as="geometry" />
        </mxCell>
        <mxCell id="VOs9YZUs-2yAqUJfuIDz-9" style="edgeStyle=orthogonalEdgeStyle;rounded=0;orthogonalLoop=1;jettySize=auto;html=1;exitX=0.5;exitY=1;exitDx=0;exitDy=0;entryX=0.5;entryY=0;entryDx=0;entryDy=0;" edge="1" parent="WIyWlLk6GJQsqaUBKTNV-1" source="VOs9YZUs-2yAqUJfuIDz-4" target="VOs9YZUs-2yAqUJfuIDz-6">
          <mxGeometry relative="1" as="geometry" />
        </mxCell>
        <mxCell id="VOs9YZUs-2yAqUJfuIDz-4" value="a = times[t]" style="rounded=0;whiteSpace=wrap;html=1;" vertex="1" parent="WIyWlLk6GJQsqaUBKTNV-1">
          <mxGeometry x="235" y="270" width="120" height="60" as="geometry" />
        </mxCell>
        <mxCell id="VOs9YZUs-2yAqUJfuIDz-35" style="edgeStyle=orthogonalEdgeStyle;rounded=0;orthogonalLoop=1;jettySize=auto;html=1;exitX=0.5;exitY=1;exitDx=0;exitDy=0;entryX=0.5;entryY=0;entryDx=0;entryDy=0;" edge="1" parent="WIyWlLk6GJQsqaUBKTNV-1" source="VOs9YZUs-2yAqUJfuIDz-6" target="VOs9YZUs-2yAqUJfuIDz-34">
          <mxGeometry relative="1" as="geometry" />
        </mxCell>
        <mxCell id="VOs9YZUs-2yAqUJfuIDz-6" value="i = t+1, v = false&lt;br&gt;b = times[i]" style="shape=hexagon;perimeter=hexagonPerimeter2;whiteSpace=wrap;html=1;fixedSize=1;" vertex="1" parent="WIyWlLk6GJQsqaUBKTNV-1">
          <mxGeometry x="215" y="350" width="160" height="80" as="geometry" />
        </mxCell>
        <mxCell id="VOs9YZUs-2yAqUJfuIDz-39" style="edgeStyle=orthogonalEdgeStyle;rounded=0;orthogonalLoop=1;jettySize=auto;html=1;exitX=0.5;exitY=0;exitDx=0;exitDy=0;entryX=1;entryY=0.5;entryDx=0;entryDy=0;" edge="1" parent="WIyWlLk6GJQsqaUBKTNV-1" source="VOs9YZUs-2yAqUJfuIDz-12" target="VOs9YZUs-2yAqUJfuIDz-34">
          <mxGeometry relative="1" as="geometry">
            <Array as="points">
              <mxPoint x="500" y="670" />
              <mxPoint x="500" y="480" />
            </Array>
          </mxGeometry>
        </mxCell>
        <mxCell id="VOs9YZUs-2yAqUJfuIDz-12" value="blacklist에 i 추가" style="rounded=0;whiteSpace=wrap;html=1;" vertex="1" parent="WIyWlLk6GJQsqaUBKTNV-1">
          <mxGeometry x="439" y="670" width="120" height="60" as="geometry" />
        </mxCell>
        <mxCell id="VOs9YZUs-2yAqUJfuIDz-28" style="edgeStyle=orthogonalEdgeStyle;rounded=0;orthogonalLoop=1;jettySize=auto;html=1;exitX=1;exitY=0.5;exitDx=0;exitDy=0;entryX=0;entryY=0.5;entryDx=0;entryDy=0;" edge="1" parent="WIyWlLk6GJQsqaUBKTNV-1" source="VOs9YZUs-2yAqUJfuIDz-20" target="VOs9YZUs-2yAqUJfuIDz-27">
          <mxGeometry relative="1" as="geometry" />
        </mxCell>
        <mxCell id="VOs9YZUs-2yAqUJfuIDz-29" value="False" style="edgeLabel;html=1;align=center;verticalAlign=middle;resizable=0;points=[];" vertex="1" connectable="0" parent="VOs9YZUs-2yAqUJfuIDz-28">
          <mxGeometry x="-0.2187" y="1" relative="1" as="geometry">
            <mxPoint as="offset" />
          </mxGeometry>
        </mxCell>
        <mxCell id="VOs9YZUs-2yAqUJfuIDz-49" style="edgeStyle=orthogonalEdgeStyle;rounded=0;orthogonalLoop=1;jettySize=auto;html=1;exitX=0.5;exitY=1;exitDx=0;exitDy=0;entryX=1;entryY=0.5;entryDx=0;entryDy=0;" edge="1" parent="WIyWlLk6GJQsqaUBKTNV-1" source="VOs9YZUs-2yAqUJfuIDz-20" target="VOs9YZUs-2yAqUJfuIDz-34">
          <mxGeometry relative="1" as="geometry">
            <Array as="points">
              <mxPoint x="295" y="900" />
              <mxPoint x="625" y="900" />
              <mxPoint x="625" y="480" />
            </Array>
          </mxGeometry>
        </mxCell>
        <mxCell id="VOs9YZUs-2yAqUJfuIDz-50" value="True" style="edgeLabel;html=1;align=center;verticalAlign=middle;resizable=0;points=[];" vertex="1" connectable="0" parent="VOs9YZUs-2yAqUJfuIDz-49">
          <mxGeometry x="-0.9727" relative="1" as="geometry">
            <mxPoint as="offset" />
          </mxGeometry>
        </mxCell>
        <mxCell id="VOs9YZUs-2yAqUJfuIDz-20" value="if v" style="rhombus;whiteSpace=wrap;html=1;" vertex="1" parent="WIyWlLk6GJQsqaUBKTNV-1">
          <mxGeometry x="200" y="770" width="190" height="80" as="geometry" />
        </mxCell>
        <mxCell id="VOs9YZUs-2yAqUJfuIDz-40" style="edgeStyle=orthogonalEdgeStyle;rounded=0;orthogonalLoop=1;jettySize=auto;html=1;exitX=1;exitY=0.5;exitDx=0;exitDy=0;entryX=1;entryY=0.5;entryDx=0;entryDy=0;" edge="1" parent="WIyWlLk6GJQsqaUBKTNV-1" source="VOs9YZUs-2yAqUJfuIDz-27" target="VOs9YZUs-2yAqUJfuIDz-34">
          <mxGeometry relative="1" as="geometry" />
        </mxCell>
        <mxCell id="VOs9YZUs-2yAqUJfuIDz-27" value="t = i&lt;br&gt;q.append(i)" style="rounded=0;whiteSpace=wrap;html=1;" vertex="1" parent="WIyWlLk6GJQsqaUBKTNV-1">
          <mxGeometry x="439" y="780" width="120" height="60" as="geometry" />
        </mxCell>
        <mxCell id="VOs9YZUs-2yAqUJfuIDz-36" style="edgeStyle=orthogonalEdgeStyle;rounded=0;orthogonalLoop=1;jettySize=auto;html=1;exitX=0.5;exitY=1;exitDx=0;exitDy=0;entryX=0.5;entryY=0;entryDx=0;entryDy=0;" edge="1" parent="WIyWlLk6GJQsqaUBKTNV-1" source="VOs9YZUs-2yAqUJfuIDz-34" target="VOs9YZUs-2yAqUJfuIDz-56">
          <mxGeometry relative="1" as="geometry">
            <mxPoint x="295" y="570" as="targetPoint" />
          </mxGeometry>
        </mxCell>
        <mxCell id="VOs9YZUs-2yAqUJfuIDz-37" value="True" style="edgeLabel;html=1;align=center;verticalAlign=middle;resizable=0;points=[];" vertex="1" connectable="0" parent="VOs9YZUs-2yAqUJfuIDz-36">
          <mxGeometry x="-0.2571" relative="1" as="geometry">
            <mxPoint as="offset" />
          </mxGeometry>
        </mxCell>
        <mxCell id="VOs9YZUs-2yAqUJfuIDz-66" style="edgeStyle=orthogonalEdgeStyle;rounded=0;orthogonalLoop=1;jettySize=auto;html=1;exitX=0;exitY=0.5;exitDx=0;exitDy=0;entryX=0;entryY=0.5;entryDx=0;entryDy=0;" edge="1" parent="WIyWlLk6GJQsqaUBKTNV-1" source="VOs9YZUs-2yAqUJfuIDz-34" target="VOs9YZUs-2yAqUJfuIDz-54">
          <mxGeometry relative="1" as="geometry">
            <mxPoint x="190" y="250" as="targetPoint" />
            <Array as="points">
              <mxPoint x="190" y="480" />
              <mxPoint x="190" y="220" />
            </Array>
          </mxGeometry>
        </mxCell>
        <mxCell id="VOs9YZUs-2yAqUJfuIDz-34" value="i &amp;lt; N" style="rhombus;whiteSpace=wrap;html=1;" vertex="1" parent="WIyWlLk6GJQsqaUBKTNV-1">
          <mxGeometry x="255" y="440" width="80" height="80" as="geometry" />
        </mxCell>
        <mxCell id="VOs9YZUs-2yAqUJfuIDz-69" style="edgeStyle=orthogonalEdgeStyle;rounded=0;orthogonalLoop=1;jettySize=auto;html=1;exitX=0.5;exitY=1;exitDx=0;exitDy=0;entryX=0.5;entryY=0;entryDx=0;entryDy=0;" edge="1" parent="WIyWlLk6GJQsqaUBKTNV-1" source="VOs9YZUs-2yAqUJfuIDz-54" target="VOs9YZUs-2yAqUJfuIDz-4">
          <mxGeometry relative="1" as="geometry" />
        </mxCell>
        <mxCell id="VOs9YZUs-2yAqUJfuIDz-70" value="True" style="edgeLabel;html=1;align=center;verticalAlign=middle;resizable=0;points=[];" vertex="1" connectable="0" parent="VOs9YZUs-2yAqUJfuIDz-69">
          <mxGeometry x="-0.4286" y="-2" relative="1" as="geometry">
            <mxPoint as="offset" />
          </mxGeometry>
        </mxCell>
        <mxCell id="VOs9YZUs-2yAqUJfuIDz-72" style="edgeStyle=orthogonalEdgeStyle;rounded=0;orthogonalLoop=1;jettySize=auto;html=1;exitX=1;exitY=0.5;exitDx=0;exitDy=0;entryX=0;entryY=0.5;entryDx=0;entryDy=0;" edge="1" parent="WIyWlLk6GJQsqaUBKTNV-1" source="VOs9YZUs-2yAqUJfuIDz-54" target="VOs9YZUs-2yAqUJfuIDz-71">
          <mxGeometry relative="1" as="geometry" />
        </mxCell>
        <mxCell id="VOs9YZUs-2yAqUJfuIDz-73" value="False" style="edgeLabel;html=1;align=center;verticalAlign=middle;resizable=0;points=[];" vertex="1" connectable="0" parent="VOs9YZUs-2yAqUJfuIDz-72">
          <mxGeometry x="-0.2773" y="3" relative="1" as="geometry">
            <mxPoint as="offset" />
          </mxGeometry>
        </mxCell>
        <mxCell id="VOs9YZUs-2yAqUJfuIDz-54" value="t+1 &amp;lt; N" style="rhombus;whiteSpace=wrap;html=1;" vertex="1" parent="WIyWlLk6GJQsqaUBKTNV-1">
          <mxGeometry x="255" y="190" width="80" height="60" as="geometry" />
        </mxCell>
        <mxCell id="VOs9YZUs-2yAqUJfuIDz-57" style="edgeStyle=orthogonalEdgeStyle;rounded=0;orthogonalLoop=1;jettySize=auto;html=1;exitX=0.5;exitY=1;exitDx=0;exitDy=0;entryX=0.5;entryY=0;entryDx=0;entryDy=0;" edge="1" parent="WIyWlLk6GJQsqaUBKTNV-1" source="VOs9YZUs-2yAqUJfuIDz-56" target="VOs9YZUs-2yAqUJfuIDz-3">
          <mxGeometry relative="1" as="geometry" />
        </mxCell>
        <mxCell id="VOs9YZUs-2yAqUJfuIDz-58" value="False" style="edgeLabel;html=1;align=center;verticalAlign=middle;resizable=0;points=[];" vertex="1" connectable="0" parent="VOs9YZUs-2yAqUJfuIDz-57">
          <mxGeometry x="-0.0286" relative="1" as="geometry">
            <mxPoint as="offset" />
          </mxGeometry>
        </mxCell>
        <mxCell id="VOs9YZUs-2yAqUJfuIDz-59" style="edgeStyle=orthogonalEdgeStyle;rounded=0;orthogonalLoop=1;jettySize=auto;html=1;exitX=1;exitY=0.5;exitDx=0;exitDy=0;entryX=1;entryY=0.5;entryDx=0;entryDy=0;" edge="1" parent="WIyWlLk6GJQsqaUBKTNV-1" source="VOs9YZUs-2yAqUJfuIDz-56" target="VOs9YZUs-2yAqUJfuIDz-34">
          <mxGeometry relative="1" as="geometry" />
        </mxCell>
        <mxCell id="VOs9YZUs-2yAqUJfuIDz-61" value="i ++" style="edgeLabel;html=1;align=center;verticalAlign=middle;resizable=0;points=[];" vertex="1" connectable="0" parent="VOs9YZUs-2yAqUJfuIDz-59">
          <mxGeometry x="0.5881" y="-1" relative="1" as="geometry">
            <mxPoint as="offset" />
          </mxGeometry>
        </mxCell>
        <mxCell id="VOs9YZUs-2yAqUJfuIDz-62" value="True" style="edgeLabel;html=1;align=center;verticalAlign=middle;resizable=0;points=[];" vertex="1" connectable="0" parent="VOs9YZUs-2yAqUJfuIDz-59">
          <mxGeometry x="-0.9216" relative="1" as="geometry">
            <mxPoint as="offset" />
          </mxGeometry>
        </mxCell>
        <mxCell id="VOs9YZUs-2yAqUJfuIDz-56" value="blacklist에 i가 있는가?" style="rhombus;whiteSpace=wrap;html=1;" vertex="1" parent="WIyWlLk6GJQsqaUBKTNV-1">
          <mxGeometry x="190" y="550" width="210" height="80" as="geometry" />
        </mxCell>
        <mxCell id="VOs9YZUs-2yAqUJfuIDz-71" value="print(len(q))" style="rounded=0;whiteSpace=wrap;html=1;" vertex="1" parent="WIyWlLk6GJQsqaUBKTNV-1">
          <mxGeometry x="420" y="190" width="120" height="60" as="geometry" />
        </mxCell>
      </root>
    </mxGraphModel>
  </diagram>
</mxfile>
